<mxfile host="app.diagrams.net" modified="2024-06-21T04:20:31.416Z" agent="Mozilla/5.0 (X11; Ubuntu; Linux x86_64; rv:127.0) Gecko/20100101 Firefox/127.0" etag="oBp2JGCYpR3ZvxpDN5xo" version="24.5.4" type="device">
  <diagram name="Page-1" id="yuPBU4UE_motjavbdSF-">
    <mxGraphModel dx="300" dy="834" grid="1" gridSize="10" guides="1" tooltips="1" connect="1" arrows="1" fold="1" page="0" pageScale="1" pageWidth="1169" pageHeight="827" math="0" shadow="0">
      <root>
        <mxCell id="0" />
        <mxCell id="1" parent="0" />
        <mxCell id="W1fyiQ1UdQSS2ZDAop95-250" value="" style="rounded=0;whiteSpace=wrap;html=1;fillColor=none;" vertex="1" parent="1">
          <mxGeometry x="1080" y="-280" width="200" height="160" as="geometry" />
        </mxCell>
        <mxCell id="W1fyiQ1UdQSS2ZDAop95-252" value="&lt;font style=&quot;font-size: 20px;&quot; color=&quot;#0000ff&quot;&gt;Imem&lt;/font&gt;" style="text;html=1;align=center;verticalAlign=middle;resizable=0;points=[];autosize=1;strokeColor=none;fillColor=none;" vertex="1" parent="1">
          <mxGeometry x="1075" y="-310" width="70" height="40" as="geometry" />
        </mxCell>
        <mxCell id="W1fyiQ1UdQSS2ZDAop95-253" value="" style="endArrow=classic;html=1;rounded=0;" edge="1" parent="1">
          <mxGeometry width="50" height="50" relative="1" as="geometry">
            <mxPoint x="1000" y="-240" as="sourcePoint" />
            <mxPoint x="1080" y="-240" as="targetPoint" />
          </mxGeometry>
        </mxCell>
        <mxCell id="W1fyiQ1UdQSS2ZDAop95-255" value="clock" style="edgeLabel;html=1;align=center;verticalAlign=middle;resizable=0;points=[];fontSize=15;" vertex="1" connectable="0" parent="W1fyiQ1UdQSS2ZDAop95-253">
          <mxGeometry x="0.1563" y="-2" relative="1" as="geometry">
            <mxPoint x="-66" y="-2" as="offset" />
          </mxGeometry>
        </mxCell>
        <mxCell id="W1fyiQ1UdQSS2ZDAop95-256" value="" style="endArrow=classic;html=1;rounded=0;" edge="1" parent="1">
          <mxGeometry width="50" height="50" relative="1" as="geometry">
            <mxPoint x="1000" y="-210" as="sourcePoint" />
            <mxPoint x="1080" y="-210" as="targetPoint" />
          </mxGeometry>
        </mxCell>
        <mxCell id="W1fyiQ1UdQSS2ZDAop95-257" value="reset" style="edgeLabel;html=1;align=center;verticalAlign=middle;resizable=0;points=[];fontSize=15;" vertex="1" connectable="0" parent="W1fyiQ1UdQSS2ZDAop95-256">
          <mxGeometry x="0.1563" y="-2" relative="1" as="geometry">
            <mxPoint x="-66" y="-2" as="offset" />
          </mxGeometry>
        </mxCell>
        <mxCell id="W1fyiQ1UdQSS2ZDAop95-259" value="" style="endArrow=classic;html=1;rounded=0;" edge="1" parent="1">
          <mxGeometry width="50" height="50" relative="1" as="geometry">
            <mxPoint x="1000" y="-180" as="sourcePoint" />
            <mxPoint x="1080" y="-180" as="targetPoint" />
          </mxGeometry>
        </mxCell>
        <mxCell id="W1fyiQ1UdQSS2ZDAop95-260" value="ren" style="edgeLabel;html=1;align=center;verticalAlign=middle;resizable=0;points=[];fontSize=15;" vertex="1" connectable="0" parent="W1fyiQ1UdQSS2ZDAop95-259">
          <mxGeometry x="0.1563" y="-2" relative="1" as="geometry">
            <mxPoint x="-66" y="-2" as="offset" />
          </mxGeometry>
        </mxCell>
        <mxCell id="W1fyiQ1UdQSS2ZDAop95-267" value="" style="endArrow=classic;html=1;rounded=0;" edge="1" parent="1">
          <mxGeometry width="50" height="50" relative="1" as="geometry">
            <mxPoint x="890" y="-140" as="sourcePoint" />
            <mxPoint x="1080" y="-140" as="targetPoint" />
          </mxGeometry>
        </mxCell>
        <mxCell id="W1fyiQ1UdQSS2ZDAop95-268" value="block_address" style="edgeLabel;html=1;align=center;verticalAlign=middle;resizable=0;points=[];fontSize=15;" vertex="1" connectable="0" parent="W1fyiQ1UdQSS2ZDAop95-267">
          <mxGeometry x="0.1563" y="-2" relative="1" as="geometry">
            <mxPoint x="-170" y="-2" as="offset" />
          </mxGeometry>
        </mxCell>
        <mxCell id="W1fyiQ1UdQSS2ZDAop95-275" value="" style="endArrow=classic;html=1;rounded=0;" edge="1" parent="1">
          <mxGeometry width="50" height="50" relative="1" as="geometry">
            <mxPoint x="1280" y="-240" as="sourcePoint" />
            <mxPoint x="1360" y="-239.76" as="targetPoint" />
          </mxGeometry>
        </mxCell>
        <mxCell id="W1fyiQ1UdQSS2ZDAop95-278" value="ready" style="edgeLabel;html=1;align=center;verticalAlign=middle;resizable=0;points=[];fontSize=15;" vertex="1" connectable="0" parent="1">
          <mxGeometry x="1380" y="-240" as="geometry" />
        </mxCell>
        <mxCell id="W1fyiQ1UdQSS2ZDAop95-281" value="" style="endArrow=none;html=1;rounded=0;" edge="1" parent="1">
          <mxGeometry width="50" height="50" relative="1" as="geometry">
            <mxPoint x="890" y="-130" as="sourcePoint" />
            <mxPoint x="910" y="-150" as="targetPoint" />
          </mxGeometry>
        </mxCell>
        <mxCell id="W1fyiQ1UdQSS2ZDAop95-286" value="`IMEM_BLOCK_ADDR_SIZE" style="text;html=1;align=center;verticalAlign=middle;resizable=0;points=[];autosize=1;strokeColor=none;fillColor=none;" vertex="1" parent="1">
          <mxGeometry x="910" y="-160" width="180" height="30" as="geometry" />
        </mxCell>
        <mxCell id="W1fyiQ1UdQSS2ZDAop95-290" value="" style="endArrow=classic;html=1;rounded=0;" edge="1" parent="1">
          <mxGeometry width="50" height="50" relative="1" as="geometry">
            <mxPoint x="1280" y="-200.42000000000002" as="sourcePoint" />
            <mxPoint x="1420" y="-200.42000000000002" as="targetPoint" />
          </mxGeometry>
        </mxCell>
        <mxCell id="W1fyiQ1UdQSS2ZDAop95-294" value="&lt;font style=&quot;font-size: 12px;&quot;&gt;`IBLOCK_SIZE_BITS&lt;/font&gt;" style="edgeLabel;html=1;align=center;verticalAlign=middle;resizable=0;points=[];" vertex="1" connectable="0" parent="W1fyiQ1UdQSS2ZDAop95-290">
          <mxGeometry x="-0.5571" y="1" relative="1" as="geometry">
            <mxPoint x="29" y="1" as="offset" />
          </mxGeometry>
        </mxCell>
        <mxCell id="W1fyiQ1UdQSS2ZDAop95-298" value="dout" style="edgeLabel;html=1;align=center;verticalAlign=middle;resizable=0;points=[];fontSize=15;" vertex="1" connectable="0" parent="1">
          <mxGeometry x="1440" y="-200" as="geometry" />
        </mxCell>
      </root>
    </mxGraphModel>
  </diagram>
</mxfile>
